<svg width="32" height="34" viewBox="0 0 32 34" fill="none" xmlns="http://www.w3.org/2000/svg">
<g clip-path="url(#clip0_9818_19913)">
<path d="M31.9996 16.2995C31.9996 16.2643 31.9996 16.2292 31.9996 16.1941C31.9996 7.57037 24.8361 0.57959 15.9996 0.57959C7.16307 0.57959 0 7.56997 0 16.1929C0 16.226 0 16.2591 0 16.2922V17.808C0 26.4317 7.16349 33.4225 16 33.4225C24.8365 33.4225 32 26.4309 32 17.808L31.9996 16.2995Z" fill="#441D82"/>
<path fill-rule="evenodd" clip-rule="evenodd" d="M16 28.5085C14.3101 28.5125 12.6375 28.1839 11.0869 27.5435C9.58125 26.9214 8.21802 26.0243 7.07416 24.9027C5.9171 23.7746 4.99839 22.4448 4.3681 20.986C3.04771 17.9146 3.04771 14.4714 4.3681 11.4C4.99839 9.94113 5.9171 8.6114 7.07416 7.48328C8.21829 6.36238 9.58148 5.46581 11.0869 4.84412C12.6379 4.20639 14.3092 3.87744 15.9983 3.87744C17.6875 3.87744 19.3588 4.20639 20.9098 4.84412C22.4153 5.46629 23.7785 6.36341 24.9225 7.48489C26.0796 8.61302 26.9983 9.94274 27.6286 11.4016C28.949 14.473 28.949 17.9162 27.6286 20.9876C26.9984 22.4465 26.0797 23.7763 24.9225 24.9043C23.7795 26.025 22.4175 26.9216 20.9132 27.5435C19.3626 28.1839 17.69 28.5125 16 28.5085V28.5085Z" fill="url(#paint0_linear_9818_19913)"/>
<path d="M16 4.48591C17.6058 4.48279 19.1951 4.79551 20.6684 5.40453C22.0996 5.99589 23.3955 6.84873 24.4829 7.91488C25.5825 8.98708 26.4556 10.2509 27.0546 11.6374C28.3095 14.5569 28.3095 17.8298 27.0546 20.7493C26.4554 22.1353 25.5823 23.3985 24.4829 24.4702C23.3956 25.5365 22.0997 26.3893 20.6684 26.9805C19.1941 27.5866 17.6055 27.8992 16 27.8992C14.3945 27.8992 12.8059 27.5866 11.3316 26.9805C9.90036 26.3893 8.60445 25.5365 7.51717 24.4702C6.4177 23.3985 5.54459 22.1353 4.94537 20.7493C3.69055 17.8298 3.69055 14.5569 4.94537 11.6374C5.5444 10.2509 6.41752 8.98708 7.51717 7.91488C8.60457 6.84873 9.90045 5.99589 11.3316 5.40453C12.8049 4.79551 14.3942 4.48279 16 4.48591V4.48591ZM16 3.26809C14.2269 3.26483 12.4721 3.61027 10.8454 4.28281C9.26564 4.93569 7.83523 5.87713 6.63491 7.05401C5.42117 8.23736 4.45772 9.63239 3.79713 11.163C2.41072 14.3863 2.41072 18.0004 3.79713 21.2237C4.45782 22.7544 5.42126 24.1495 6.63491 25.3331C7.83533 26.5099 9.26571 27.4513 10.8454 28.1043C12.4732 28.7737 14.2272 29.119 16 29.119C17.7728 29.119 19.5268 28.7737 21.1546 28.1043C22.7343 27.4514 24.1647 26.5101 25.3651 25.3335C26.5786 24.1498 27.542 22.7547 28.2029 21.2241C29.5888 18.0007 29.5888 14.3868 28.2029 11.1634C27.5421 9.63289 26.5787 8.23789 25.3651 7.05441C24.1648 5.87754 22.7344 4.9361 21.1546 4.28321C19.5279 3.61053 17.7731 3.26496 16 3.26809Z" fill="url(#paint1_linear_9818_19913)"/>
<path d="M16 3.26833C17.7731 3.26507 19.5279 3.61051 21.1546 4.28305C22.7344 4.93593 24.1648 5.87737 25.3651 7.05425C26.5787 8.23773 27.5421 9.63272 28.2029 11.1632C29.5887 14.3867 29.5887 18.0005 28.2029 21.224C27.542 22.7545 26.5786 24.1496 25.3651 25.3333C24.1647 26.5101 22.7343 27.4515 21.1546 28.1045C19.5268 28.7739 17.7728 29.1193 16 29.1193C14.2272 29.1193 12.4732 28.7739 10.8454 28.1045C9.26573 27.4516 7.83535 26.5104 6.6349 25.3337C5.4214 24.15 4.45798 22.7549 3.79712 21.2244C2.41126 18.0009 2.41126 14.3871 3.79712 11.1636C4.45789 9.63313 5.42133 8.23813 6.6349 7.05465C7.83522 5.87778 9.26563 4.93634 10.8454 4.28345C12.4721 3.61077 14.2269 3.2652 16 3.26833V3.26833ZM16 0.579102C7.16349 0.579102 0 7.56988 0 16.1936C0 24.8173 7.16349 31.8081 16 31.8081C24.8365 31.8081 32 24.8173 32 16.1928C32 7.56827 24.8365 0.579102 16 0.579102Z" fill="url(#paint2_linear_9818_19913)"/>
<path d="M25.9725 15.5335C25.8662 15.4314 25.7397 15.3504 25.6005 15.2952C25.4612 15.2399 25.3118 15.2114 25.1609 15.2114C25.0101 15.2114 24.8607 15.2399 24.7214 15.2952C24.5822 15.3504 24.4557 15.4314 24.3494 15.5335L22.8615 16.9504L22.6184 17.181C22.5135 17.2808 22.3714 17.3369 22.2232 17.3369C22.075 17.3369 21.9329 17.2808 21.828 17.181L21.5849 16.9504L21.4117 16.7852C21.1965 16.58 20.9045 16.4646 20.6 16.4645C20.2956 16.4644 20.0036 16.5797 19.7882 16.7848C19.5729 16.99 19.4519 17.2684 19.4518 17.5586C19.4517 17.8489 19.5726 18.1273 19.7878 18.3326L21.5104 19.9728C21.6039 20.0623 21.715 20.1334 21.8374 20.1819C21.9598 20.2304 22.0911 20.2553 22.2236 20.2553C22.3562 20.2553 22.4874 20.2304 22.6098 20.1819C22.7322 20.1334 22.8434 20.0623 22.9369 19.9728L24.5604 18.4254L25.9725 17.0808C26.1871 16.8754 26.3077 16.5972 26.3077 16.3072C26.3077 16.0172 26.1871 15.739 25.9725 15.5335V15.5335Z" fill="#441D82"/>
<path d="M20.2744 14.6846L20.2689 13.888C20.2682 13.7717 20.2192 13.6604 20.1327 13.5784C20.0462 13.4964 19.9292 13.4504 19.8073 13.4503C17.9276 13.4503 10.9127 13.4482 10.9127 13.4482C10.7713 13.4487 10.6359 13.5024 10.5359 13.5977C10.4359 13.6931 10.3795 13.8222 10.3791 13.957V16.7064C10.3791 16.9862 10.2439 17.0254 10.0792 16.7944L7.99024 13.869C7.82506 13.6376 7.45022 13.4482 7.1567 13.4482H6.16093C6.01957 13.4487 5.88413 13.5024 5.78422 13.5978C5.6843 13.6931 5.62802 13.8222 5.62769 13.957V19.7465C5.62813 19.8812 5.68447 20.0102 5.78439 20.1054C5.88431 20.2006 6.01968 20.2542 6.16093 20.2545H7.16941C7.31066 20.2542 7.44603 20.2006 7.54595 20.1054C7.64587 20.0102 7.70221 19.8812 7.70265 19.7465V17.0266C7.70265 16.7472 7.83819 16.7072 8.00337 16.9382L10.0762 19.8362C10.2418 20.0671 10.6171 20.2561 10.9106 20.2561H12.0817C12.2232 20.2557 12.3587 20.2018 12.4586 20.1063C12.5585 20.0108 12.6146 19.8814 12.6146 19.7465V17.9832C12.615 17.8484 12.6714 17.7192 12.7714 17.6239C12.8713 17.5286 13.0068 17.4748 13.1482 17.4744H14.8484C14.9896 17.474 15.125 17.4203 15.2249 17.325C15.3248 17.2298 15.3812 17.1007 15.3816 16.966V16.6083C15.3812 16.4736 15.3248 16.3445 15.2249 16.2493C15.125 16.154 14.9896 16.1003 14.8484 16.0999H13.1482C13.0068 16.0995 12.8713 16.0458 12.7714 15.9504C12.6714 15.8551 12.615 15.726 12.6146 15.5911V15.4195C12.6146 15.1401 12.8331 15.1248 13.1262 15.1248L14.5362 15.1276C14.5481 15.1276 14.5599 15.1276 14.5722 15.1276H15.756C15.8974 15.128 16.0328 15.1818 16.1327 15.2771C16.2327 15.3724 16.2889 15.5016 16.2893 15.6364V19.7465C16.2897 19.8813 16.3461 20.0104 16.4461 20.1057C16.5461 20.2009 16.6816 20.2546 16.8229 20.2549H17.9627C18.104 20.2546 18.2395 20.2009 18.3394 20.1056C18.4393 20.0104 18.4956 19.8813 18.496 19.7465V15.638C18.4963 15.5032 18.5526 15.3741 18.6525 15.2787C18.7524 15.1834 18.8879 15.1296 19.0292 15.1292H19.8136C19.8746 15.1291 19.9349 15.1174 19.9911 15.0949C20.0472 15.0725 20.0982 15.0396 20.1411 14.9983C20.1839 14.957 20.2177 14.908 20.2406 14.8542C20.2635 14.8004 20.275 14.7427 20.2744 14.6846V14.6846Z" fill="#441D82"/>
<path d="M24.518 17.7394L22.8945 19.2867C22.801 19.3762 22.6898 19.4473 22.5674 19.4958C22.445 19.5443 22.3138 19.5693 22.1812 19.5693C22.0487 19.5693 21.9174 19.5443 21.795 19.4958C21.6726 19.4473 21.5615 19.3762 21.468 19.2867L19.7454 17.6461C19.5301 17.4409 19.4092 17.1625 19.4092 16.8722C19.4092 16.582 19.5301 16.3036 19.7454 16.0984C19.9607 15.8931 20.2527 15.7778 20.5571 15.7778C20.8616 15.7778 21.1536 15.8931 21.3689 16.0984L21.5421 16.2635L22.1804 16.872L23.091 17.739C23.1846 17.8285 23.2958 17.8995 23.4182 17.948C23.5406 17.9964 23.6719 18.0214 23.8044 18.0215C23.937 18.0215 24.0682 17.9966 24.1907 17.9482C24.3131 17.8998 24.4243 17.8288 24.518 17.7394Z" fill="url(#paint3_radial_9818_19913)"/>
<path d="M25.9301 16.3945L24.518 17.7391C24.4244 17.8286 24.3132 17.8996 24.1907 17.948C24.0683 17.9965 23.9371 18.0214 23.8045 18.0214C23.672 18.0214 23.5407 17.9965 23.4183 17.948C23.2958 17.8996 23.1846 17.8286 23.091 17.7391L22.1804 16.8722L21.5421 16.2637L21.7852 16.4943C21.8901 16.5941 22.0322 16.6502 22.1804 16.6502C22.3286 16.6502 22.4707 16.5941 22.5756 16.4943L22.8187 16.2637L24.307 14.8468C24.5226 14.6427 24.8142 14.5283 25.118 14.5288C25.4218 14.5293 25.713 14.6446 25.9278 14.8494C26.1426 15.0542 26.2634 15.3319 26.2638 15.6215C26.2643 15.9111 26.1443 16.1891 25.9301 16.3945Z" fill="url(#paint4_linear_9818_19913)"/>
<path d="M20.2266 13.2014C20.2258 13.0852 20.1768 12.9739 20.0903 12.8919C20.0039 12.8099 19.8869 12.7638 19.7649 12.7637C17.8852 12.7637 10.8704 12.7617 10.8704 12.7617C10.729 12.7621 10.5935 12.8159 10.4935 12.9112C10.3935 13.0065 10.3372 13.1357 10.3367 13.2705V16.0199C10.3367 16.2997 10.2016 16.3389 10.0368 16.1079L7.94789 13.1825C7.7827 12.9511 7.40786 12.7617 7.11434 12.7617H6.11858C5.97721 12.7621 5.84178 12.8159 5.74186 12.9112C5.64194 13.0066 5.58566 13.1357 5.58533 13.2705V19.06C5.58577 19.1947 5.64211 19.3237 5.74203 19.4189C5.84195 19.514 5.97733 19.5677 6.11858 19.568H7.12705C7.2683 19.5677 7.40367 19.514 7.50359 19.4189C7.60351 19.3237 7.65985 19.1947 7.6603 19.06V16.3401C7.6603 16.0607 7.79583 16.0207 7.96102 16.2517L10.0339 19.1496C10.1995 19.3806 10.5747 19.5696 10.8683 19.5696H12.0394C12.1808 19.5692 12.3164 19.5153 12.4162 19.4198C12.5161 19.3242 12.5722 19.1949 12.5722 19.06V17.2967C12.5726 17.1619 12.629 17.0327 12.729 16.9374C12.829 16.8421 12.9645 16.7883 13.1059 16.7879H14.806C14.9473 16.7875 15.0827 16.7338 15.1826 16.6385C15.2825 16.5433 15.3388 16.4142 15.3392 16.2795V15.9218C15.3388 15.7871 15.2825 15.658 15.1826 15.5628C15.0827 15.4675 14.9473 15.4138 14.806 15.4134H13.1059C12.9645 15.413 12.829 15.3592 12.729 15.2639C12.629 15.1686 12.5726 15.0394 12.5722 14.9046V14.733C12.5722 14.4536 12.7907 14.4382 13.0838 14.4382L14.4938 14.4411C14.5057 14.4411 14.5176 14.4411 14.5298 14.4411H15.7137C15.855 14.4415 15.9905 14.4953 16.0904 14.5906C16.1903 14.6859 16.2466 14.8151 16.2469 14.9498V19.06C16.2474 19.1948 16.3037 19.3239 16.4037 19.4191C16.5037 19.5144 16.6392 19.5681 16.7806 19.5684H17.9204C18.0617 19.5681 18.1971 19.5144 18.297 19.4191C18.397 19.3239 18.4533 19.1947 18.4536 19.06V14.9515C18.4539 14.8167 18.5102 14.6875 18.6101 14.5922C18.7101 14.4969 18.8455 14.4431 18.9869 14.4427H19.7713C19.8322 14.4425 19.8924 14.4309 19.9486 14.4085C20.0048 14.386 20.0557 14.3532 20.0985 14.3119C20.1414 14.2707 20.1752 14.2217 20.1981 14.1679C20.221 14.1142 20.2326 14.0566 20.2321 13.9985L20.2266 13.2014Z" fill="url(#paint5_radial_9818_19913)"/>
</g>
<defs>
<linearGradient id="paint0_linear_9818_19913" x1="16" y1="29.8374" x2="16" y2="5.2047" gradientUnits="userSpaceOnUse">
<stop stop-color="#C06AFF"/>
<stop offset="0.99" stop-color="#F7E1FF"/>
</linearGradient>
<linearGradient id="paint1_linear_9818_19913" x1="16" y1="3.58466" x2="16" y2="29.4352" gradientUnits="userSpaceOnUse">
<stop stop-color="#B36AFF"/>
<stop offset="0.54" stop-color="#8B5CF9"/>
<stop offset="0.99" stop-color="#C8A9FF"/>
</linearGradient>
<linearGradient id="paint2_linear_9818_19913" x1="16" y1="32.1246" x2="16" y2="0.895672" gradientUnits="userSpaceOnUse">
<stop stop-color="#737CBF"/>
<stop offset="0.17" stop-color="#9183D2"/>
<stop offset="0.39" stop-color="#B08BE6"/>
<stop offset="0.6" stop-color="#C590F4"/>
<stop offset="0.8" stop-color="#D393FC"/>
<stop offset="0.99" stop-color="#D794FF"/>
</linearGradient>
<radialGradient id="paint3_radial_9818_19913" cx="0" cy="0" r="1" gradientUnits="userSpaceOnUse" gradientTransform="translate(25.1855 14.9666) scale(18.9 18.0182)">
<stop stop-color="#46B2E8"/>
<stop offset="0.11" stop-color="#579EED"/>
<stop offset="0.34" stop-color="#826BF9"/>
<stop offset="0.45" stop-color="#9850FF"/>
<stop offset="0.55" stop-color="#8F40D6"/>
<stop offset="0.69" stop-color="#832CA5"/>
<stop offset="0.8" stop-color="#7D2087"/>
<stop offset="0.86" stop-color="#7A1C7C"/>
</radialGradient>
<linearGradient id="paint4_linear_9818_19913" x1="21.5421" y1="16.2738" x2="26.2655" y2="16.2738" gradientUnits="userSpaceOnUse">
<stop offset="0.14" stop-color="#7A1C7C"/>
<stop offset="0.27" stop-color="#7D2087"/>
<stop offset="0.49" stop-color="#832CA5"/>
<stop offset="0.78" stop-color="#8F40D6"/>
<stop offset="1" stop-color="#9850FF"/>
</linearGradient>
<radialGradient id="paint5_radial_9818_19913" cx="0" cy="0" r="1" gradientUnits="userSpaceOnUse" gradientTransform="translate(24.7891 14.5824) scale(18.9 18.0182)">
<stop stop-color="#46B2E8"/>
<stop offset="0.11" stop-color="#579EED"/>
<stop offset="0.34" stop-color="#826BF9"/>
<stop offset="0.45" stop-color="#9850FF"/>
</radialGradient>
<clipPath id="clip0_9818_19913">
<rect width="32" height="32.8421" fill="white" transform="translate(0 0.579102)"/>
</clipPath>
</defs>
</svg>
