<svg width="94" height="14" viewBox="0 0 94 14" fill="none" xmlns="http://www.w3.org/2000/svg">
<path d="M36.4003 10.1718L33.2795 13.2926C32.5231 14.0517 31.292 14.0517 30.5368 13.2926L27.2256 9.98401C26.7952 9.55364 26.58 8.98894 26.58 8.42294C26.58 7.85694 26.7952 7.29224 27.2256 6.86187C28.089 5.99852 29.487 5.99852 30.3464 6.86187L30.679 7.19443L31.9062 8.42163L33.6577 10.1692C34.4128 10.9308 35.6439 10.9308 36.4003 10.1718Z" fill="url(#paint0_radial_9818_19878)"/>
<path d="M39.1156 7.46074L36.4004 10.1721C35.644 10.9311 34.4128 10.9311 33.6577 10.1721L31.9063 8.4245L30.679 7.1973L31.1472 7.66157C31.5672 8.08151 32.2466 8.08151 32.6666 7.66157L33.1348 7.1973L35.9948 4.33859C36.4251 3.90822 36.9898 3.69043 37.5558 3.69043C38.1218 3.69043 38.6826 3.90953 39.1169 4.33859C39.975 5.19933 39.975 6.59608 39.1156 7.46074Z" fill="url(#paint1_linear_9818_19878)"/>
<path d="M28.1488 1.02012C28.1462 0.532372 27.7498 0.138517 27.262 0.137213C23.6482 0.134605 10.1567 0.133301 10.1567 0.133301C9.59204 0.133301 9.13168 0.594971 9.13168 1.15836V6.70362C9.13168 7.26702 8.87215 7.34657 8.55524 6.88099L4.53845 0.981C4.22154 0.514113 3.49904 0.133301 2.93565 0.133301H1.02506C0.46167 0.133301 0 0.594971 0 1.15836V12.8371C0 13.4004 0.46167 13.8621 1.02506 13.8621H2.96434C3.52904 13.8621 3.9894 13.4004 3.9894 12.8371V7.34918C3.9894 6.78578 4.24893 6.70493 4.56714 7.17051L8.55263 13.0144C8.87085 13.48 9.59204 13.8621 10.1567 13.8621H12.409C12.9724 13.8621 13.4341 13.4004 13.4341 12.8371V9.27672C13.4341 8.71332 13.8957 8.25165 14.4591 8.25165H17.7273C18.292 8.25165 18.7524 7.78998 18.7524 7.22659V6.50539C18.7524 5.94069 18.2907 5.48033 17.7273 5.48033H14.4591C13.8944 5.48033 13.4341 5.01866 13.4341 4.45526V4.10966C13.4341 3.54627 13.854 3.51497 14.4174 3.51497L17.1287 3.52149C17.1522 3.52279 17.1744 3.5254 17.1979 3.5254H19.4736C20.0383 3.5254 20.4987 3.98707 20.4987 4.55047V12.8384C20.4987 13.4031 20.9603 13.8634 21.5237 13.8634H23.7147C24.2794 13.8634 24.7398 13.4018 24.7398 12.8384V4.54916C24.7398 3.98577 25.2014 3.5241 25.7648 3.5241C25.7648 3.5241 26.5904 3.52279 27.2724 3.52149C27.7641 3.52019 28.1619 3.11981 28.158 2.62814L28.1488 1.02012Z" fill="url(#paint2_radial_9818_19878)"/>
<path d="M42.3368 13.7451C41.6469 13.7451 41.1083 13.2065 41.1083 12.5166C41.1083 11.8267 41.6469 11.2881 42.3368 11.2881C43.0097 11.2881 43.5483 11.8267 43.5483 12.5166C43.5483 13.2065 43.0097 13.7451 42.3368 13.7451Z" fill="white"/>
<path d="M48.984 13.7795C46.763 13.7795 45.198 12.4675 45.1133 10.7839H47.0982C47.166 11.5416 47.8885 12.1637 48.9488 12.1637C50.0599 12.1637 50.6481 11.6929 50.6481 11.0525C50.6481 9.23455 45.2632 10.2779 45.2632 6.87925C45.2632 5.39903 46.643 4.20312 48.8301 4.20312C50.9337 4.20312 52.3135 5.32991 52.4139 7.18181H50.4955C50.4277 6.37454 49.8056 5.81897 48.7623 5.81897C47.7359 5.81897 47.1973 6.24021 47.1973 6.86229C47.1973 8.72984 52.4308 7.68652 52.5313 11.0356C52.5339 12.6019 51.171 13.7795 48.984 13.7795Z" fill="white"/>
<path d="M58.6256 13.7794C55.9834 13.7794 53.9815 11.8949 53.9815 8.98398C53.9815 6.07311 56.0682 4.20557 58.7104 4.20557C61.3526 4.20557 63.4392 6.07311 63.4392 8.98398C63.4379 11.8949 61.2835 13.7794 58.6256 13.7794ZM58.6256 12.1139C60.0563 12.1139 61.47 11.0876 61.47 8.98398C61.47 6.88038 60.1071 5.87097 58.6765 5.87097C57.2289 5.87097 55.9339 6.88038 55.9339 8.98398C55.9325 11.0876 57.178 12.1139 58.6256 12.1139Z" fill="white"/>
<path d="M69.2427 4.20557C71.5146 4.20557 72.9948 5.33235 73.5164 7.28467H71.4468C71.1272 6.39263 70.3865 5.82011 69.2427 5.82011C67.6947 5.82011 66.6683 6.96385 66.6683 8.98398C66.6683 11.0198 67.6947 12.1648 69.2427 12.1648C70.3865 12.1648 71.0933 11.6601 71.4468 10.7002H73.5164C72.9948 12.5182 71.5146 13.7794 69.2427 13.7794C66.5836 13.7794 64.6991 11.8949 64.6991 8.98398C64.7004 6.09007 66.5849 4.20557 69.2427 4.20557Z" fill="white"/>
<path d="M75.1832 1.8999C75.1832 1.21 75.7218 0.671387 76.4117 0.671387C77.0847 0.671387 77.6233 1.21 77.6233 1.8999C77.6233 2.5898 77.0847 3.12841 76.4117 3.12841C75.7218 3.12841 75.1832 2.5898 75.1832 1.8999ZM75.4349 4.35692H77.3533V13.6281H75.4349V4.35692Z" fill="white"/>
<path d="M83.6132 4.20557C85.1781 4.20557 86.2554 4.94633 86.8266 5.70273V4.35685H88.762V13.6281H86.8266V12.2483C86.2371 13.0386 85.1273 13.7794 83.5793 13.7794C81.1731 13.7794 79.2377 11.8101 79.2377 8.95007C79.2377 6.09007 81.1731 4.20557 83.6132 4.20557ZM84.0174 5.87097C82.5868 5.87097 81.207 6.9482 81.207 8.95007C81.207 10.9519 82.5868 12.1139 84.0174 12.1139C85.4651 12.1139 86.8279 10.9859 86.8279 8.98398C86.8266 6.99776 85.4638 5.87097 84.0174 5.87097Z" fill="white"/>
<path d="M91.2856 1.17578H93.204V13.6278H91.2856V1.17578Z" fill="white"/>
<defs>
<radialGradient id="paint0_radial_9818_19878" cx="0" cy="0" r="1" gradientUnits="userSpaceOnUse" gradientTransform="translate(37.683 4.57981) scale(36.3369 36.3369)">
<stop stop-color="#46B2E8"/>
<stop offset="0.1118" stop-color="#579EED"/>
<stop offset="0.3392" stop-color="#826BF9"/>
<stop offset="0.4486" stop-color="#9850FF"/>
<stop offset="0.5529" stop-color="#8F40D6"/>
<stop offset="0.691" stop-color="#832CA5"/>
<stop offset="0.7965" stop-color="#7D2087"/>
<stop offset="0.8559" stop-color="#7A1C7C"/>
</radialGradient>
<linearGradient id="paint1_linear_9818_19878" x1="30.6783" y1="7.21608" x2="39.76" y2="7.21608" gradientUnits="userSpaceOnUse">
<stop offset="0.1441" stop-color="#7A1C7C"/>
<stop offset="0.269" stop-color="#7D2087"/>
<stop offset="0.4906" stop-color="#832CA5"/>
<stop offset="0.7808" stop-color="#8F40D6"/>
<stop offset="1" stop-color="#9850FF"/>
</linearGradient>
<radialGradient id="paint2_radial_9818_19878" cx="0" cy="0" r="1" gradientUnits="userSpaceOnUse" gradientTransform="translate(36.921 3.80484) scale(36.3369 36.3369)">
<stop stop-color="#46B2E8"/>
<stop offset="0.1118" stop-color="#579EED"/>
<stop offset="0.3392" stop-color="#826BF9"/>
<stop offset="0.4486" stop-color="#9850FF"/>
</radialGradient>
</defs>
</svg>
