<svg width="25" height="24" viewBox="0 0 25 24" fill="none" xmlns="http://www.w3.org/2000/svg">
<path fill-rule="evenodd" clip-rule="evenodd" d="M5.57715 9.67451V5.07715H10.1745V9.67451H5.57715ZM6.65865 8.59279H9.09255V6.1589H6.65865V8.59279Z" fill="#FFFFFF"/>
<path fill-rule="evenodd" clip-rule="evenodd" d="M14.8262 9.67451V5.07715H19.4235V9.67451H14.8262ZM15.9079 8.59279H18.3418V6.1589H15.9079V8.59279Z" fill="#FFFFFF"/>
<path fill-rule="evenodd" clip-rule="evenodd" d="M5.57715 18.9235V14.3262H10.1745V18.9235H5.57715ZM6.65865 17.8418H9.09255V15.4079H6.65865V17.8418Z" fill="#FFFFFF"/>
<rect x="6.65918" y="10.4043" width="1.08173" height="1.08173" fill="#FFFFFF"/>
<path d="M8.82197 12.5681V11.4863H7.74023V12.5681H8.79492V13.6498H9.87665V12.5681H8.82197Z" fill="#FFFFFF"/>
<rect x="13.1494" y="7.15918" width="1.08173" height="1.08173" fill="#FFFFFF"/>
<rect x="10.9854" y="6.15918" width="1.08173" height="2.08233" fill="#FFFFFF"/>
<rect x="12.0674" y="5.07715" width="1.08173" height="1.08173" fill="#FFFFFF"/>
<path d="M12.0671 8.24121V9.32294H10.9854V10.4047H13.1488V8.24121H12.0671Z" fill="#FFFFFF"/>
<path d="M13.1488 14.6774V13.6227H12.0671V11.4863H10.9854V13.6498H12.0671V14.7045H13.1488V15.7592H15.3123V14.6774H13.1488Z" fill="#FFFFFF"/>
<rect x="13.1494" y="10.4043" width="1.08173" height="2.16346" fill="#FFFFFF"/>
<path fill-rule="evenodd" clip-rule="evenodd" d="M18.3413 10.4043V11.459H19.4231V13.6224H16.3942V12.5678H15.3125V11.486H16.3672V10.4043H18.3413ZM16.3942 12.5407H18.3413V11.4861H16.3942V12.5407Z" fill="#FFFFFF"/>
<rect x="18.3418" y="14.6777" width="1.08173" height="2.16346" fill="#FFFFFF"/>
<rect x="14.2314" y="12.5684" width="1.08173" height="1.08173" fill="#FFFFFF"/>
<rect x="15.3125" y="15.7588" width="1.08173" height="1.08173" fill="#FFFFFF"/>
<rect x="16.3945" y="14.6777" width="1.08173" height="1.08173" fill="#FFFFFF"/>
<path d="M16.3945 16.8408V18.9232H17.4763V17.9226H18.3416V16.8408H16.3945Z" fill="#FFFFFF"/>
<rect x="10.9854" y="14.7041" width="1.08173" height="2.05529" fill="#FFFFFF"/>
<path d="M14.2308 17.8415V16.7598H12.0674V18.9232H13.1491V17.8415H14.2038V18.9232H15.2855V17.8415H14.2308Z" fill="#FFFFFF"/>
<rect x="8.82227" y="10.4043" width="2.16346" height="1.08173" fill="#FFFFFF"/>
<rect x="5.57715" y="11.4863" width="1.08173" height="2.16346" fill="#FFFFFF"/>
<path d="M3.07706 6.61538C3.39556 6.61538 3.65385 6.3571 3.65385 6.03859V3.75493C3.65411 3.42323 3.92323 3.15411 4.25493 3.15385H6.53859C6.8571 3.15385 7.11538 2.89556 7.11538 2.57706C7.11538 2.25829 6.8571 2 6.53859 2H4.25493C3.28622 2.00106 2.50106 2.78622 2.5 3.75493V6.03859C2.5 6.3571 2.75829 6.61538 3.07706 6.61538Z" fill="#FFFFFF"/>
<path d="M21.9229 17.3846C21.6044 17.3846 21.3462 17.6429 21.3462 17.9614V20.2451C21.3459 20.5768 21.0768 20.8459 20.7451 20.8462H18.4614C18.1429 20.8462 17.8846 21.1044 17.8846 21.4229C17.8846 21.7417 18.1429 22 18.4614 22H20.7451C21.7138 21.9989 22.4989 21.2138 22.5 20.2451V17.9614C22.5 17.6429 22.2417 17.3846 21.9229 17.3846Z" fill="#FFFFFF"/>
<path d="M17.8846 2.57705C17.8846 2.89556 18.1429 3.15385 18.4614 3.15385L20.7451 3.15385C21.0768 3.15411 21.3459 3.42323 21.3462 3.75493L21.3462 6.03859C21.3462 6.3571 21.6044 6.61538 21.9229 6.61538C22.2417 6.61538 22.5 6.3571 22.5 6.03859L22.5 3.75493C22.4989 2.78622 21.7138 2.00106 20.7451 2L18.4614 2C18.1429 2 17.8846 2.25829 17.8846 2.57705Z" fill="#FFFFFF"/>
<path d="M7.11538 21.4229C7.11538 21.1044 6.8571 20.8462 6.53859 20.8462L4.25493 20.8462C3.92323 20.8459 3.65411 20.5768 3.65385 20.2451L3.65385 17.9614C3.65385 17.6429 3.39556 17.3846 3.07706 17.3846C2.75829 17.3846 2.5 17.6429 2.5 17.9614L2.5 20.2451C2.50106 21.2138 3.28622 21.9989 4.25493 22L6.53859 22C6.8571 22 7.11538 21.7417 7.11538 21.4229Z" fill="#FFFFFF"/>
</svg>
